# This file is brought to you by Roblox Corporation
# Generated by Roblox Studio

mtllib Burger.mtl

g Burger1

v -0.339934 -0.189701 -0.151714 
v -0.371876 -0.189701 -0.00892876 
v -0.371876 -0.119059 -0.00892876 
v -0.346736 -0.119059 0.135214 
v -0.346736 -0.189701 0.135214 
v 0.138281 -0.189701 0.349714 
v 0.261836 -0.119059 0.271324 
v 0.138281 -0.119059 0.349714 
v 0.261836 -0.189701 0.271324 
v 0.345979 -0.119059 0.151624 
v 0.345979 -0.189701 0.151624 
v 0.377914 -0.119059 0.00883874 
v 0.377914 -0.189701 0.00883874 
v 0.274391 -0.189701 -0.258851 
v 0.154691 -0.189701 -0.343001 
v 0.154691 -0.119059 -0.343001 
v -0.324874 -0.0771113 -0.211714 
v -0.211001 -0.0771113 0.324169 
v -0.386854 -0.0771113 -0.0210038 
v -0.0202987 -0.0687338 0.386141 
v 0.386854 -0.0771113 0.0195862 
v 0.324874 -0.0771113 0.210296 
v 0.0202988 -0.0771113 -0.387559 
v 0.211001 -0.0771113 -0.325586 
v 0.345169 -0.0771113 -0.176554 
v 0.247076 -0.104584 -0.232804 
v 0.352781 -0.119059 -0.135304 
v 0.274391 -0.119059 -0.258851 
v 0.317569 -0.104584 -0.121691 
v 0.139429 -0.104584 -0.308479 
v 0.00301875 -0.0995813 -4.12596e-05 
v 0.340174 -0.104584 0.00794624 
v 0.311456 -0.104584 0.136361 
v 0.235781 -0.104584 0.244009 
v 0.0110063 -0.104584 -0.337204 
v -0.118624 -0.104584 -0.314591 
v 0.0119063 -0.119059 -0.374936 
v -0.229736 -0.104584 -0.244099 
v -0.305411 -0.104584 -0.136444 
v -0.334136 -0.104584 -0.00802876 
v -0.339934 -0.119059 -0.151714 
v -0.311524 -0.104584 0.121601 
v -0.241031 -0.104584 0.232714 
v -0.133384 -0.104584 0.308389 
v -0.00496125 -0.104584 0.337114 
v 0.124669 -0.104584 0.314501 
v -0.268346 -0.119059 0.258769 
v -0.00586125 -0.119059 0.374854 
v 0.139429 -0.204176 -0.308479 
v 0.0110063 -0.204176 -0.337204 
v 0.0119063 -0.189701 -0.374936 
v 0.340174 -0.204176 0.00794624 
v 0.317569 -0.204176 -0.121691 
v 0.352781 -0.189701 -0.135304 
v 0.00301875 -0.209186 -4.12596e-05 
v 0.247076 -0.204176 -0.232804 
v -0.118624 -0.204176 -0.314591 
v 0.311456 -0.204176 0.136361 
v 0.235781 -0.204176 0.244009 
v 0.124669 -0.204176 0.314501 
v -0.00496125 -0.204176 0.337114 
v -0.133384 -0.204176 0.308389 
v -0.00586125 -0.189701 0.374854 
v -0.241031 -0.204176 0.232714 
v -0.311524 -0.204176 0.121601 
v -0.334136 -0.204176 -0.00802876 
v -0.305411 -0.204176 -0.136444 
v -0.229736 -0.204176 -0.244099 
v -0.148646 -0.189701 0.342911 
v -0.386854 -0.205871 -0.0210038 
v -0.300146 -0.260711 -0.195649 
v -0.357401 -0.260711 -0.0194588 
v -0.277601 -0.282491 -0.0152738 
v -0.247691 -0.282491 0.125479 
v -0.318896 -0.260711 0.161756 
v -0.162461 -0.260711 -0.319601 
v -0.233126 -0.282491 -0.152119 
v 0.151414 -0.282491 -0.233831 
v 0.247691 -0.282491 -0.126896 
v 0.277594 -0.282491 0.0138562 
v -0.151414 -0.282491 0.232414 
v -0.194944 -0.260711 0.299434 
v -0.175849 -0.205871 -0.345881 
v 0.0187538 -0.260711 -0.358114 
v -0.126184 -0.282491 -0.248396 
v 0.0145688 -0.282491 -0.278306 
v 0.194944 -0.260711 -0.300851 
v 0.318896 -0.260711 -0.163174 
v 0.357401 -0.260711 0.0180412 
v 0.211001 -0.205871 -0.325586 
v 0.345169 -0.205871 -0.176554 
v 0.300146 -0.260711 0.194231 
v 0.233126 -0.282491 0.150701 
v -0.0145687 -0.282491 0.276889 
v 0.324874 -0.205871 0.210296 
v 0.162461 -0.260711 0.318184 
v 0.126184 -0.282491 0.246979 
v -0.0187537 -0.260711 0.356696 
v -0.0202987 -0.205871 0.386141 
v 0.175849 -0.205871 0.344464 
v -0.357761 -0.0960263 -0.0121463 
v -0.418271 -0.101494 -0.136639 
v -0.418271 -0.115534 -0.136639 
v -0.357761 -0.0803888 -0.0121463 
v -0.336154 -0.0797062 -0.252056 
v -0.336154 -0.0967087 -0.252056 
v -0.278816 -0.0976763 -0.0932063 
v -0.0890813 -0.0976763 0.279214 
v -0.261049 -0.103601 0.325984 
v -0.261049 -0.0879712 0.325984 
v -0.278816 -0.0787388 -0.0932063 
v 0.0227963 -0.0797062 -0.364451 
v 0.0227963 -0.0967087 -0.364451 
v 0.278809 -0.0976763 0.0917888 
v 0.322406 -0.0967087 0.223654 
v 0.00571125 -0.0967087 0.418984 
v -0.135934 -0.123244 0.417566 
v -0.135934 -0.109204 0.417566 
v -0.0890813 -0.0787387 0.279214 
v 0.0890813 -0.0976763 -0.280631 
v 0.386854 -0.0960263 -0.00409126 
v 0.418271 -0.138926 0.135221 
v 0.418271 -0.124886 0.135221 
v 0.322406 -0.0797063 0.223654 
v 0.00571125 -0.0797063 0.418984 
v 0.242201 -0.0960263 -0.317801 
v 0.386854 -0.0803888 -0.00409126 
v 0.135934 -0.119681 -0.418984 
v 0.242201 -0.0803888 -0.317801 
v 0.278809 -0.0787387 0.0917887 
v 0.135934 -0.105641 -0.418984 
v 0.0890813 -0.0787388 -0.280631 
v 0.0680513 0.0123562 0.366521 
v 0.204229 0.0123562 0.313009 
v 0.204229 0.0829987 0.313009 
v 0.309566 0.0829987 0.211466 
v 0.309566 0.0123562 0.211466 
v 0.368021 0.0829987 0.0773287 
v 0.368021 0.0123562 0.0773287 
v -0.0647888 0.0123562 -0.371614 
v -0.200974 0.0829987 -0.318101 
v -0.0647888 0.0829987 -0.371614 
v 0.0734588 0.0974737 -0.332059 
v 0.194089 0.0974737 -0.279484 
v 0.215636 0.0829987 -0.310481 
v -0.0581063 0.0974737 -0.334466 
v -0.180574 0.0974737 -0.286339 
v 0.00163125 0.102476 -0.00253876 
v 0.285424 0.0974737 -0.184751 
v 0.333544 0.0974737 -0.0622838 
v 0.370699 0.0829987 -0.0689738 
v -0.275314 0.0974737 -0.195011 
v -0.327881 0.0974737 -0.0743738 
v -0.330289 0.0974737 0.0571912 
v -0.364766 0.0829987 -0.0824213 
v -0.282161 0.0974737 0.179659 
v -0.190834 0.0974737 0.274399 
v -0.313924 0.0829987 0.200051 
v -0.0702038 0.0974737 0.326966 
v 0.0613613 0.0974737 0.329374 
v 0.183836 0.0974737 0.281246 
v 0.278576 0.0974737 0.189911 
v 0.331136 0.0974737 0.0692812 
v -0.212381 0.0829987 0.305396 
v 0.0680513 0.0829987 0.366521 
v -0.0581063 -0.00211881 -0.334466 
v -0.180574 -0.00211881 -0.286339 
v -0.200974 0.0123562 -0.318101 
v 0.194089 -0.00211881 -0.279484 
v 0.0734588 -0.00211881 -0.332059 
v 0.0815063 0.0123562 -0.368944 
v 0.00163125 -0.0071288 -0.00253876 
v -0.275314 -0.00211881 -0.195011 
v -0.327881 -0.00211879 -0.0743738 
v -0.364766 0.0123562 -0.0824213 
v -0.367444 0.0123562 0.0638812 
v -0.330289 -0.00211881 0.0571912 
v -0.313924 0.0123562 0.200051 
v 0.215636 0.0123562 -0.310481 
v 0.285424 -0.00211881 -0.184751 
v 0.317186 0.0123562 -0.205151 
v 0.333544 -0.00211879 -0.0622838 
v 0.370699 0.0123562 -0.0689738 
v 0.331136 -0.00211881 0.0692813 
v 0.278576 -0.00211881 0.189911 
v 0.183836 -0.00211879 0.281246 
v 0.0613613 -0.00211881 0.329374 
v -0.0702038 -0.00211881 0.326966 
v -0.190834 -0.00211879 0.274399 
v -0.282161 -0.00211881 0.179659 
v -0.0782437 0.0123562 0.363851 
v -0.212381 0.0123562 0.305396 
v -0.230711 -0.00381379 0.311239 
v -0.353224 -0.0586538 0.153349 
v -0.229106 -0.0586538 0.309071 
v -0.219469 -0.0804338 0.296006 
v -0.0419438 -0.0804338 0.365734 
v -0.0437662 -0.0586538 0.381874 
v -0.355699 -0.00381379 0.154421 
v -0.382849 -0.0586538 -0.0435638 
v -0.338336 -0.0804338 0.146861 
v -0.147836 -0.0804338 -0.338134 
v 0.0407588 -0.0804338 -0.366514 
v 0.218276 -0.0804338 -0.296779 
v 0.146651 -0.0804338 0.337354 
v 0.153146 -0.0586538 0.352241 
v -0.385526 -0.00381379 -0.0438713 
v -0.310054 -0.0586538 -0.228911 
v -0.366709 -0.0804338 -0.0417413 
v -0.296981 -0.0804338 -0.219266 
v -0.154331 -0.0586538 -0.353029 
v 0.0425813 -0.0586538 -0.382654 
v 0.227929 -0.0586538 -0.309851 
v -0.312214 -0.00381379 -0.230509 
v -0.155411 -0.00381379 -0.355496 
v 0.229526 -0.00381379 -0.312019 
v 0.352046 -0.0586538 -0.154129 
v 0.337151 -0.0804338 -0.147641 
v 0.295796 -0.0804338 0.218486 
v 0.354514 -0.00381379 -0.155201 
v 0.381664 -0.0586538 0.0427837 
v 0.365524 -0.0804338 0.0409612 
v 0.308869 -0.0586538 0.228131 
v 0.311029 -0.00381381 0.229729 
v 0.384349 -0.00381381 0.0430837 
v -0.207289 0.106031 0.291844 
v -0.344516 0.100564 0.273731 
v -0.344516 0.0865237 0.273731 
v -0.207289 0.121669 0.291844 
v -0.395576 0.122351 0.141604 
v -0.395576 0.105349 0.141604 
v -0.231424 0.104381 0.181294 
v 0.183904 0.104381 0.228199 
v 0.128164 0.0984562 0.397474 
v 0.128164 0.114086 0.397474 
v -0.231424 0.123319 0.181294 
v -0.291559 0.122351 -0.219859 
v -0.291559 0.105349 -0.219859 
v 0.230239 0.104381 -0.182074 
v 0.364301 0.105349 -0.145781 
v 0.352774 0.105349 0.226121 
v 0.273529 0.0788137 0.343541 
v 0.273529 0.0928537 0.343541 
v 0.183904 0.123319 0.228199 
v -0.185081 0.104381 -0.228986 
v 0.209771 0.106031 -0.325069 
v 0.343331 0.0631312 -0.274511 
v 0.343331 0.0771712 -0.274511 
v 0.364301 0.122351 -0.145781 
v 0.352774 0.122351 0.226121 
v -0.131719 0.106031 -0.377239 
v 0.209771 0.121669 -0.325069 
v -0.274714 0.0823762 -0.344321 
v -0.131719 0.121669 -0.377239 
v 0.230239 0.123319 -0.182074 
v -0.274714 0.0964162 -0.344321 
v -0.185081 0.123319 -0.228986 
v 0.0428888 0.124946 -0.385324 
v -0.155411 0.124946 -0.355496 
v -0.143621 0.193684 -0.328466 
v -0.288499 0.193684 -0.212996 
v -0.220946 0.251959 -0.163114 
v -0.110059 0.251959 -0.251486 
v 0.0395738 0.193684 -0.356029 
v 0.229526 0.124946 -0.312019 
v 0.212006 0.193684 -0.288296 
v 0.354514 0.124946 -0.155201 
v -0.312214 0.124946 -0.230509 
v -0.356224 0.193684 -0.0405563 
v -0.272786 0.251959 -0.0311288 
v -0.147896 0.275359 -0.0170288 
v -0.119846 0.275359 -0.0884513 
v -0.0598388 0.275359 -0.136286 
v 0.0301463 0.251959 -0.272576 
v -0.385526 0.112361 -0.0438713 
v -0.328661 0.193684 0.142639 
v -0.251689 0.251959 0.109076 
v -0.136481 0.275359 0.0588562 
v -0.000596246 0.282491 -0.00038626 
v 0.0160463 0.275359 -0.147701 
v 0.162131 0.251959 -0.220744 
v -0.355699 0.124946 0.154421 
v -0.213191 0.193684 0.287516 
v -0.163316 0.251959 0.219956 
v -0.0886538 0.275359 0.118856 
v -0.230711 0.124946 0.311239 
v -0.0407587 0.193684 0.355241 
v -0.0313387 0.251959 0.271804 
v -0.0172312 0.275359 0.146921 
v 0.142436 0.193684 0.327679 
v 0.108874 0.251959 0.250706 
v 0.0586463 0.275359 0.135499 
v 0.287314 0.193684 0.212216 
v 0.219761 0.251959 0.162326 
v 0.118661 0.275359 0.0876712 
v 0.146719 0.275359 0.0162487 
v 0.135296 0.275359 -0.0596363 
v 0.0874688 0.275359 -0.119644 
v 0.311029 0.133324 0.229729 
v 0.355039 0.193684 0.0397762 
v 0.271601 0.251959 0.0303487 
v 0.384349 0.133324 0.0430837 
v 0.327484 0.193684 -0.143426 
v 0.250504 0.251959 -0.109864 
v -0.211001 -0.0771113 0.324169 
v -0.386854 -0.0771113 -0.0210038 
v -0.345169 -0.0771113 0.175136 
v -0.255791 -0.189701 -0.271414 
v -0.339934 -0.119059 -0.151714 
v -0.255791 -0.119059 -0.271414 
v -0.268346 -0.119059 0.258769 
v -0.268346 -0.189701 0.258769 
v -0.148646 -0.119059 0.342911 
v -0.148646 -0.189701 0.342911 
v -0.00586125 -0.119059 0.374854 
v -0.00586125 -0.189701 0.374854 
v 0.352781 -0.119059 -0.135304 
v 0.352781 -0.189701 -0.135304 
v 0.274391 -0.119059 -0.258851 
v 0.0119063 -0.119059 -0.374936 
v 0.0119063 -0.189701 -0.374936 
v -0.132236 -0.119059 -0.349804 
v -0.132236 -0.189701 -0.349804 
v -0.255791 -0.119059 -0.271414 
v -0.255791 -0.189701 -0.271414 
v 0.175849 -0.0687338 0.344464 
v 0.0202988 -0.0771113 -0.387559 
v -0.175849 -0.0896962 -0.345881 
v 0.324874 -0.0771113 0.210296 
v -0.175849 -0.0896962 -0.345881 
v 0.175849 -0.0687338 0.344464 
v 0.386854 -0.205871 0.0195862 
v 0.0202988 -0.205871 -0.387559 
v -0.324874 -0.205871 -0.211714 
v -0.211001 -0.205871 0.324169 
v -0.345169 -0.205871 0.175136 
v 0.377914 -0.119059 0.00883874 
v 0.345979 -0.119059 0.151624 
v 0.261836 -0.119059 0.271324 
v 0.138281 -0.119059 0.349714 
v 0.154691 -0.119059 -0.343001 
v -0.132236 -0.119059 -0.349804 
v -0.255791 -0.119059 -0.271414 
v -0.371876 -0.119059 -0.00892876 
v -0.346736 -0.119059 0.135214 
v -0.148646 -0.119059 0.342911 
v 0.274391 -0.189701 -0.258851 
v 0.154691 -0.189701 -0.343001 
v -0.132236 -0.189701 -0.349804 
v -0.255791 -0.189701 -0.271414 
v -0.339934 -0.189701 -0.151714 
v 0.377914 -0.189701 0.00883874 
v 0.345979 -0.189701 0.151624 
v 0.261836 -0.189701 0.271324 
v 0.138281 -0.189701 0.349714 
v -0.268346 -0.189701 0.258769 
v -0.346736 -0.189701 0.135214 
v -0.371876 -0.189701 -0.00892876 
v 0.154226 0.124946 0.354709 
v -0.230711 0.124946 0.311239 
v -0.0440663 0.124946 0.384544 
v -0.367444 0.0123562 0.0638812 
v -0.313924 0.0829987 0.200051 
v -0.367444 0.0829987 0.0638812 
v -0.313924 0.0123562 0.200051 
v -0.212381 0.0829987 0.305396 
v -0.212381 0.0123562 0.305396 
v -0.0782437 0.0829987 0.363851 
v -0.0782437 0.0123562 0.363851 
v 0.0680513 0.0829987 0.366521 
v 0.370699 0.0829987 -0.0689738 
v 0.370699 0.0123562 -0.0689738 
v 0.317186 0.0829987 -0.205151 
v 0.317186 0.0123562 -0.205151 
v 0.215636 0.0829987 -0.310481 
v 0.215636 0.0123562 -0.310481 
v 0.0815063 0.0829987 -0.368944 
v 0.0815063 0.0123562 -0.368944 
v -0.200974 0.0123562 -0.318101 
v -0.306304 0.0829987 -0.216551 
v -0.306304 0.0123562 -0.216551 
v -0.364766 0.0829987 -0.0824213 
v -0.364766 0.0123562 -0.0824213 
v -0.367444 0.0829987 0.0638812 
v -0.367444 0.0123562 0.0638812 
v 0.0428888 -0.00381379 -0.385324 
v 0.154226 -0.00381379 0.354709 
v -0.0440663 -0.00381381 0.384544 
v 0.0815063 0.0829987 -0.368944 
v -0.0647888 0.0829987 -0.371614 
v 0.317186 0.0829987 -0.205151 
v 0.368021 0.0829987 0.0773287 
v 0.309566 0.0829987 0.211466 
v -0.200974 0.0829987 -0.318101 
v -0.306304 0.0829987 -0.216551 
v -0.367444 0.0829987 0.0638812 
v -0.0782437 0.0829987 0.363851 
v 0.204229 0.0829987 0.313009 
v -0.0647888 0.0123562 -0.371614 
v -0.306304 0.0123562 -0.216551 
v 0.368021 0.0123562 0.0773287 
v 0.309566 0.0123562 0.211466 
v 0.204229 0.0123562 0.313009 
v 0.0680513 0.0123562 0.366521 
v -0.0440663 0.124946 0.384544 
v 0.154226 0.124946 0.354709 

vn -0.787402 -0.543307 -0.291339 
vn -0.874016 -0.488189 -0.023622 
vn -0.850394 0.519685 -0.0708661 
vn -0.80315 0.543307 0.251969 
vn -0.811024 -0.488189 0.314961 
vn 0.354331 -0.519685 0.779528 
vn 0.543307 0.543307 0.645669 
vn 0.314961 0.488189 0.811024 
vn 0.598425 -0.488189 0.629921 
vn 0.748031 0.543307 0.385827 
vn 0.795276 -0.488189 0.354331 
vn 0.84252 0.543307 0.0708661 
vn 0.874016 -0.488189 0.023622 
vn 0.574803 -0.543307 -0.614173 
vn 0.354331 -0.488189 -0.795276 
vn 0.393701 0.519685 -0.755906 
vn -0.0314961 -1 0.023622 
vn 0.023622 -1 -0.00787402 
vn 0 -1 0 
vn 0 -1 0.023622 
vn 0 -1 0 
vn 0 -1 0 
vn 0 -1 0 
vn 0 -1 0 
vn 0 -1 0 
vn 0.173228 0.976378 -0.141732 
vn 0.76378 0.543307 -0.354331 
vn 0.590551 0.582677 -0.559055 
vn 0.212598 0.976378 -0.0708661 
vn 0.102362 0.976378 -0.19685 
vn 0 1 0 
vn 0.220472 0.976378 -0.00787402 
vn 0.212598 0.976378 0.0708661 
vn 0.141732 0.976378 0.173228 
vn 0.023622 0.976378 -0.19685 
vn -0.0708661 0.976378 -0.212598 
vn -0.0314961 0.551181 -0.834646 
vn -0.125984 0.976378 -0.15748 
vn -0.173228 0.976378 -0.0944882 
vn -0.220472 0.976378 -0.015748 
vn -0.779528 0.551181 -0.291339 
vn -0.212598 0.976378 0.0708661 
vn -0.173228 0.976378 0.141732 
vn -0.102362 0.976378 0.19685 
vn -0.015748 0.976378 0.220472 
vn 0.0866142 0.984252 0.181102 
vn -0.566929 0.551181 0.614173 
vn 0.0314961 0.551181 0.834646 
vn 0.0708661 -0.984252 -0.181102 
vn -0.00787402 -0.976378 -0.220472 
vn 0.0708661 -0.551181 -0.834646 
vn 0.220472 -0.976378 -0.00787402 
vn 0.212598 -0.976378 -0.0708661 
vn 0.795276 -0.551181 -0.251969 
vn 0 -1 0 
vn 0.173228 -0.976378 -0.141732 
vn -0.0944882 -0.976378 -0.204724 
vn 0.188976 -0.976378 0.0629921 
vn 0.149606 -0.976378 0.133858 
vn 0.0866142 -0.976378 0.181102 
vn 0.015748 -0.976378 0.19685 
vn -0.0787402 -0.976378 0.212598 
vn -0.0708661 -0.551181 0.834646 
vn -0.149606 -0.976378 0.165354 
vn -0.204724 -0.976378 0.0944882 
vn -0.228346 -0.976378 0.00787402 
vn -0.212598 -0.976378 -0.0787402 
vn -0.125984 -0.984252 -0.149606 
vn -0.330709 -0.582677 0.748031 
vn -0.88189 0.456693 -0.102362 
vn -0.551181 -0.787402 -0.291339 
vn -0.692913 -0.716535 0.023622 
vn -0.15748 -0.984252 -0.023622 
vn -0.102362 -0.992126 0.0393701 
vn -0.527559 -0.787402 0.330709 
vn -0.299213 -0.795276 -0.527559 
vn -0.102362 -0.992126 -0.0787402 
vn 0.0708661 -0.992126 -0.0866142 
vn 0.149606 -0.984252 -0.0629921 
vn 0.133858 -0.992126 0.015748 
vn -0.0787402 -0.992126 0.102362 
vn -0.346457 -0.708661 0.614173 
vn -0.362205 0.456693 -0.811024 
vn -0.023622 -0.787402 -0.622047 
vn -0.0708661 -0.976378 -0.181102 
vn 0.023622 -0.984252 -0.15748 
vn 0.291339 -0.787402 -0.551181 
vn 0.527559 -0.787402 -0.330709 
vn 0.622047 -0.787402 -0.023622 
vn 0.527559 0.456693 -0.716535 
vn 0.818898 0.393701 -0.417323 
vn 0.519685 -0.795276 0.307087 
vn 0.102362 -0.992126 0.0787402 
vn -0.023622 -0.984252 0.15748 
vn 0.716535 0.456693 0.527559 
vn 0.330709 -0.787402 0.527559 
vn 0.0708661 -0.976378 0.181102 
vn 0.023622 -0.787402 0.622047 
vn -0.102362 0.456693 0.88189 
vn 0.354331 0.464567 0.811024 
vn -0.637795 -0.716535 0.291339 
vn -0.968504 0.251969 -0.0787402 
vn -0.598425 -0.80315 -0.0393701 
vn -0.708661 0.669291 0.220472 
vn -0.401575 0.692913 -0.590551 
vn -0.433071 -0.724409 -0.527559 
vn 0.0393701 -1 0.00787402 
vn 0.00787402 -1 0 
vn -0.606299 -0.76378 0.23622 
vn -0.511811 0.692913 0.503937 
vn -0.00787402 1 0.00787402 
vn -0.23622 0.692913 -0.677165 
vn -0.267717 -0.732283 -0.629921 
vn -0.0866142 -1 -0.023622 
vn 0.377953 -0.708661 0.590551 
vn 0.322835 -0.748031 0.582677 
vn -0.299213 -0.259843 0.92126 
vn -0.259843 0.645669 0.716535 
vn -0.0393701 1 0.0629921 
vn 0 -1 -0.00787402 
vn 0.645669 -0.716535 -0.267717 
vn 0.503937 -0.84252 0.165354 
vn 0.937008 0.204724 0.283465 
vn 0.511811 0.637795 0.582677 
vn 0.0708661 0.700787 0.708661 
vn 0.606299 -0.724409 -0.322835 
vn 0.748031 0.629921 -0.204724 
vn 0.141732 -0.307087 -0.944882 
vn 0.527559 0.692913 -0.488189 
vn 0.00787402 1 0 
vn 0.133858 0.700787 -0.700787 
vn 0.023622 1 -0.0551181 
vn 0.19685 -0.543307 0.818898 
vn 0.472441 -0.488189 0.732283 
vn 0.417323 0.519685 0.740157 
vn 0.661417 0.543307 0.519685 
vn 0.716535 -0.488189 0.496063 
vn 0.811024 0.543307 0.228346 
vn 0.850394 -0.488189 0.188976 
vn -0.19685 -0.519685 -0.826772 
vn -0.409449 0.543307 -0.732283 
vn -0.15748 0.488189 -0.858268 
vn 0.0551181 0.984252 -0.188976 
vn 0.141732 0.976378 -0.173228 
vn 0.433071 0.551181 -0.708661 
vn -0.0472441 0.984252 -0.188976 
vn -0.0944882 0.976378 -0.173228 
vn 0 1 0 
vn 0.173228 0.976378 -0.133858 
vn 0.220472 0.976378 -0.023622 
vn 0.811024 0.551181 -0.19685 
vn -0.15748 0.976378 -0.125984 
vn -0.188976 0.976378 -0.0551181 
vn -0.220472 0.976378 0.023622 
vn -0.826772 0.551181 -0.125984 
vn -0.173228 0.976378 0.0944882 
vn -0.141732 0.976378 0.173228 
vn -0.677165 0.551181 0.488189 
vn -0.0629921 0.976378 0.212598 
vn 0.023622 0.976378 0.220472 
vn 0.110236 0.976378 0.19685 
vn 0.173228 0.976378 0.141732 
vn 0.19685 0.984252 0.023622 
vn -0.464567 0.582677 0.669291 
vn 0.19685 0.551181 0.811024 
vn -0.0472441 -0.984252 -0.188976 
vn -0.133858 -0.976378 -0.181102 
vn -0.409449 -0.551181 -0.724409 
vn 0.11811 -0.976378 -0.188976 
vn 0.0629921 -0.976378 -0.220472 
vn 0.228346 -0.551181 -0.80315 
vn 0 -1 0 
vn -0.173228 -0.976378 -0.141732 
vn -0.220472 -0.976378 -0.0314961 
vn -0.80315 -0.551181 -0.228346 
vn -0.834646 -0.535433 0.133858 
vn -0.220472 -0.976378 0.0551181 
vn -0.732283 -0.543307 0.409449 
vn 0.464567 -0.582677 -0.669291 
vn 0.181102 -0.976378 -0.133858 
vn 0.685039 -0.582677 -0.440945 
vn 0.220472 -0.976378 -0.0551181 
vn 0.80315 -0.582677 -0.141732 
vn 0.220472 -0.976378 0.0314961 
vn 0.173228 -0.976378 0.102362 
vn 0.11811 -0.976378 0.15748 
vn 0.0551181 -0.976378 0.220472 
vn -0.0314961 -0.976378 0.220472 
vn -0.11811 -0.976378 0.188976 
vn -0.181102 -0.976378 0.133858 
vn -0.228346 -0.551181 0.80315 
vn -0.464567 -0.582677 0.669291 
vn -0.503937 0.629921 0.582677 
vn -0.826772 -0.338583 0.448819 
vn -0.551181 -0.244094 0.795276 
vn -0.354331 -0.84252 0.401575 
vn -0.0787402 -0.92126 0.370079 
vn -0.023622 -0.338583 0.937008 
vn -0.732283 0.598425 0.322835 
vn -0.937008 -0.338583 -0.023622 
vn -0.425197 -0.897638 0.141732 
vn -0.11811 -0.92126 -0.362205 
vn 0.110236 -0.850394 -0.519685 
vn 0.291339 -0.897638 -0.330709 
vn 0.141732 -0.897638 0.425197 
vn 0.393701 -0.244094 0.88189 
vn -0.80315 0.590551 -0.0944882 
vn -0.80315 -0.338583 -0.488189 
vn -0.637795 -0.755906 -0.125984 
vn -0.401575 -0.850394 -0.354331 
vn -0.448819 -0.338583 -0.826772 
vn 0.023622 -0.338583 -0.937008 
vn 0.488189 -0.338583 -0.80315 
vn -0.645669 0.598425 -0.480315 
vn -0.322835 0.590551 -0.740157 
vn 0.496063 0.629921 -0.590551 
vn 0.826772 -0.338583 -0.448819 
vn 0.425197 -0.897638 -0.141732 
vn 0.401575 -0.850394 0.354331 
vn 0.740157 0.590551 -0.322835 
vn 0.937008 -0.338583 0.023622 
vn 0.637795 -0.755906 0.133858 
vn 0.80315 -0.338583 0.488189 
vn 0.582677 0.629921 0.511811 
vn 0.755906 0.637795 0.141732 
vn -0.102362 -0.716535 0.692913 
vn -0.598425 0.251969 0.76378 
vn -0.362205 -0.80315 0.480315 
vn -0.204724 0.669291 0.716535 
vn -0.716535 0.692913 0.015748 
vn -0.685039 -0.724409 0.0708661 
vn 0.0314961 -1 -0.023622 
vn 0 -1 -0.00787402 
vn -0.133858 -0.76378 0.629921 
vn 0.141732 0.692913 0.700787 
vn 0 1 0.015748 
vn -0.692913 0.692913 -0.173228 
vn -0.669291 -0.732283 -0.125984 
vn -0.0629921 -1 0.0551181 
vn 0.700787 -0.708661 0.00787402 
vn 0.661417 -0.748031 0.0551181 
vn 0.606299 -0.259843 0.755906 
vn 0.456693 0.645669 0.614173 
vn 0.0314961 1 0.0708661 
vn 0 -1 -0.00787402 
vn 0.133858 -0.716535 -0.685039 
vn 0.425197 -0.84252 -0.330709 
vn 0.755906 0.204724 -0.622047 
vn 0.76378 0.637795 -0.102362 
vn 0.629921 0.700787 0.330709 
vn 0.0708661 -0.724409 -0.685039 
vn 0.244094 0.629921 -0.732283 
vn -0.708661 -0.307087 -0.637795 
vn -0.110236 0.692913 -0.708661 
vn 0.00787402 1 -0.00787402 
vn -0.511811 0.700787 -0.496063 
vn -0.0393701 1 -0.0472441 
vn 0 -1 0 
vn 0 -1 -0.015748 
vn -0.291339 0.637795 -0.716535 
vn -0.614173 0.637795 -0.472441 
vn -0.299213 0.92126 -0.244094 
vn -0.133858 0.92126 -0.362205 
vn 0.102362 0.637795 -0.76378 
vn -0.023622 -1 0.023622 
vn 0.472441 0.637795 -0.614173 
vn -0.0629921 -1 0.0551181 
vn -0.0787402 -0.992126 -0.0944882 
vn -0.779528 0.622047 -0.102362 
vn -0.377953 0.92126 -0.0629921 
vn -0.125984 0.992126 -0.023622 
vn -0.102362 0.992126 -0.0866142 
vn -0.0393701 0.992126 -0.125984 
vn 0.0629921 0.92126 -0.377953 
vn -0.0393701 -1 0 
vn -0.724409 0.629921 0.291339 
vn -0.362205 0.92126 0.141732 
vn -0.125984 0.992126 0.0393701 
vn 0 1 0 
vn 0.023622 0.992126 -0.125984 
vn 0.244094 0.92126 -0.299213 
vn -0.0944882 -0.992126 0.0787402 
vn -0.472441 0.637795 0.614173 
vn -0.244094 0.92126 0.299213 
vn -0.0866142 0.992126 0.0944882 
vn -0.992126 -0.0866142 -0.0866142 
vn -0.102362 0.637795 0.76378 
vn -0.0629921 0.92126 0.377953 
vn -0.023622 0.992126 0.125984 
vn 0.338583 0.629921 0.700787 
vn 0.133858 0.92126 0.362205 
vn 0.0393701 0.992126 0.125984 
vn 0.622047 0.645669 0.440945 
vn 0.299213 0.92126 0.244094 
vn 0.0944882 0.992126 0.0866142 
vn 0.125984 0.992126 0.023622 
vn 0.125984 0.992126 -0.0393701 
vn 0.0866142 0.992126 -0.102362 
vn -0.173228 -0.338583 0.929134 
vn 0.748031 0.653543 0.102362 
vn 0.377953 0.92126 0.0629921 
vn 0.00787402 -1 0.015748 
vn 0.708661 0.637795 -0.299213 
vn 0.362205 0.92126 -0.133858 
vn 0.023622 -1 -0.00787402 
vn 0 -1 0 
vn 0 1 0 
vn -0.590551 -0.535433 -0.606299 
vn -0.779528 0.551181 -0.291339 
vn -0.590551 0.527559 -0.614173 
vn -0.566929 0.551181 0.614173 
vn -0.629921 -0.488189 0.598425 
vn -0.385827 0.543307 0.748031 
vn -0.330709 -0.582677 0.748031 
vn 0.0314961 0.551181 0.834646 
vn -0.0708661 -0.551181 0.834646 
vn 0.76378 0.543307 -0.354331 
vn 0.795276 -0.551181 -0.251969 
vn 0.590551 0.582677 -0.559055 
vn -0.0314961 0.551181 -0.834646 
vn 0.0708661 -0.551181 -0.834646 
vn -0.251969 0.543307 -0.80315 
vn -0.314961 -0.488189 -0.811024 
vn -0.590551 0.527559 -0.614173 
vn -0.590551 -0.535433 -0.606299 
vn -0.015748 1 -0.00787402 
vn 0 -1 0 
vn -0.0629921 1 0 
vn 0 -1 0 
vn -0.0629921 1 0 
vn -0.015748 1 -0.00787402 
vn 0.889764 0.464567 0 
vn 0.0866142 0.480315 -0.874016 
vn -0.740157 0.488189 -0.456693 
vn -0.440945 0.464567 0.76378 
vn -0.755906 0.464567 0.464567 
vn 0.84252 0.543307 0.0708661 
vn 0.748031 0.543307 0.385827 
vn 0.543307 0.543307 0.645669 
vn 0.314961 0.488189 0.811024 
vn 0.393701 0.519685 -0.755906 
vn -0.251969 0.543307 -0.80315 
vn -0.590551 0.527559 -0.614173 
vn -0.850394 0.519685 -0.0708661 
vn -0.80315 0.543307 0.251969 
vn -0.385827 0.543307 0.748031 
vn 0.574803 -0.543307 -0.614173 
vn 0.354331 -0.488189 -0.795276 
vn -0.314961 -0.488189 -0.811024 
vn -0.590551 -0.535433 -0.606299 
vn -0.787402 -0.543307 -0.291339 
vn 0.874016 -0.488189 0.023622 
vn 0.795276 -0.488189 0.354331 
vn 0.598425 -0.488189 0.629921 
vn 0.354331 -0.519685 0.779528 
vn -0.629921 -0.488189 0.598425 
vn -0.811024 -0.488189 0.314961 
vn -0.874016 -0.488189 -0.023622 
vn -0.708661 0.700787 0.015748 
vn 0.700787 0.692913 0.173228 
vn 0.0708661 0.716535 -0.692913 
vn -0.834646 -0.535433 0.133858 
vn -0.677165 0.551181 0.488189 
vn -0.834646 0.527559 0.149606 
vn -0.732283 -0.543307 0.409449 
vn -0.464567 0.582677 0.669291 
vn -0.464567 -0.582677 0.669291 
vn -0.228346 0.543307 0.811024 
vn -0.228346 -0.551181 0.80315 
vn 0.19685 0.551181 0.811024 
vn 0.811024 0.551181 -0.19685 
vn 0.80315 -0.582677 -0.141732 
vn 0.732283 0.543307 -0.409449 
vn 0.685039 -0.582677 -0.440945 
vn 0.433071 0.551181 -0.708661 
vn 0.464567 -0.582677 -0.669291 
vn 0.228346 0.543307 -0.811024 
vn 0.228346 -0.551181 -0.80315 
vn -0.409449 -0.551181 -0.724409 
vn -0.661417 0.543307 -0.519685 
vn -0.716535 -0.488189 -0.496063 
vn -0.826772 0.551181 -0.125984 
vn -0.80315 -0.551181 -0.228346 
vn -0.834646 0.527559 0.149606 
vn -0.834646 -0.535433 0.133858 
vn 0.015748 0.645669 -0.76378 
vn 0.354331 0.637795 0.685039 
vn -0.015748 0.645669 0.76378 
vn 0.228346 0.543307 -0.811024 
vn -0.15748 0.488189 -0.858268 
vn 0.732283 0.543307 -0.409449 
vn 0.811024 0.543307 0.228346 
vn 0.661417 0.543307 0.519685 
vn -0.409449 0.543307 -0.732283 
vn -0.661417 0.543307 -0.519685 
vn -0.834646 0.527559 0.149606 
vn -0.228346 0.543307 0.811024 
vn 0.417323 0.519685 0.740157 
vn -0.19685 -0.519685 -0.826772 
vn -0.716535 -0.488189 -0.496063 
vn 0.850394 -0.488189 0.188976 
vn 0.716535 -0.488189 0.496063 
vn 0.472441 -0.488189 0.732283 
vn 0.19685 -0.543307 0.818898 
vn -0.0314961 0.968504 0.259843 
vn -0.708661 0.700787 0.015748 

vt -0.93739 -0.921242 
vt -0.937394 -0.862852 
vt -0.981265 -0.862854 
vt -0.981267 -0.804462 
vt -0.937396 -0.80446 
vt -0.937382 -0.570898 
vt -0.981247 -0.512502 
vt -0.981253 -0.570892 
vt -0.937376 -0.512506 
vt -0.981242 -0.45411 
vt -0.937371 -0.454114 
vt -0.981238 -0.39572 
vt -0.937367 -0.395722 
vt -0.937366 -0.278938 
vt -0.937369 -0.220546 
vt -0.98124 -0.220548 
vt 0.631063 -0.085408 
vt 0.542387 -0.747288 
vt 0.542387 -0.26276 
vt 0.631063 -0.924638 
vt 0.962002 -0.747288 
vt 0.873327 -0.924638 
vt 0.873327 -0.085408 
vt 0.962002 -0.26276 
vt 0.994459 -0.505024 
vt 0.453968 -0.552524 
vt 0.450498 -0.727532 
vt 0.476833 -0.557282 
vt 0.430284 -0.705636 
vt 0.446552 -0.39294 
vt 0.249689 -0.510014 
vt 0.379106 -0.828966 
vt 0.308226 -0.90374 
vt 0.228434 -0.91857 
vt 0.409165 -0.251178 
vt 0.3475 -0.148824 
vt 0.427016 -0.222206 
vt 0.270944 -0.101456 
vt 0.191152 -0.116288 
vt 0.120272 -0.19106 
vt 0.1846 -0.0722179 
vt 0.069094 -0.314392 
vt 0.04541 -0.467504 
vt 0.052826 -0.627088 
vt 0.090213 -0.768848 
vt 0.151878 -0.871204 
vt 0.022545 -0.462746 
vt 0.072362 -0.79782 
vt 0.446552 -0.39294 
vt 0.409165 -0.251178 
vt 0.427016 -0.222206 
vt 0.379106 -0.828966 
vt 0.430284 -0.705636 
vt 0.450498 -0.727532 
vt 0.249689 -0.510014 
vt 0.453968 -0.552524 
vt 0.3475 -0.148824 
vt 0.308226 -0.90374 
vt 0.228434 -0.91857 
vt 0.151878 -0.871204 
vt 0.090213 -0.768848 
vt 0.052826 -0.627088 
vt 0.072362 -0.79782 
vt 0.04541 -0.467504 
vt 0.069094 -0.314392 
vt 0.120272 -0.19106 
vt 0.191152 -0.116288 
vt 0.270944 -0.101456 
vt 0.030791 -0.640192 
vt 0.557104 -0.276984 
vt 0.646605 -0.144046 
vt 0.571705 -0.293844 
vt 0.611276 -0.339536 
vt 0.589982 -0.498472 
vt 0.54429 -0.498472 
vt 0.748919 -0.089216 
vt 0.669451 -0.223186 
vt 0.886563 -0.339536 
vt 0.907856 -0.498472 
vt 0.886563 -0.65741 
vt 0.611276 -0.65741 
vt 0.571705 -0.703104 
vt 0.748919 -0.055496 
vt 0.851234 -0.144046 
vt 0.748919 -0.1806 
vt 0.828388 -0.223186 
vt 0.926134 -0.293844 
vt 0.953549 -0.498472 
vt 0.926134 -0.703102 
vt 0.940734 -0.276984 
vt 0.970408 -0.498472 
vt 0.851234 -0.8529 
vt 0.828388 -0.773758 
vt 0.669451 -0.773758 
vt 0.859664 -0.882102 
vt 0.748919 -0.90773 
vt 0.748919 -0.816346 
vt 0.646605 -0.8529 
vt 0.638175 -0.882102 
vt 0.748919 -0.94145 
vt 0.516251 -0.961477 
vt 0.516251 -0.961477 
vt 0.516251 -0.961477 
vt 0.516251 -0.961477 
vt 0.516251 -0.961477 
vt 0.516251 -0.961477 
vt 0.516251 -0.961477 
vt 0.516251 -0.961477 
vt 0.516251 -0.961477 
vt 0.516251 -0.961477 
vt 0.516251 -0.961477 
vt 0.516251 -0.961477 
vt 0.516251 -0.961477 
vt 0.516251 -0.961477 
vt 0.516251 -0.961477 
vt 0.516251 -0.961477 
vt 0.516251 -0.961477 
vt 0.516251 -0.961477 
vt 0.516251 -0.961477 
vt 0.516251 -0.961477 
vt 0.516251 -0.961477 
vt 0.516251 -0.961477 
vt 0.516251 -0.961477 
vt 0.516251 -0.961477 
vt 0.516251 -0.961477 
vt 0.516251 -0.961477 
vt 0.516251 -0.961477 
vt 0.516251 -0.961477 
vt 0.516251 -0.961477 
vt 0.516251 -0.961477 
vt 0.516251 -0.961477 
vt 0.516251 -0.961477 
vt -0.937395 -0.74607 
vt -0.937392 -0.68768 
vt -0.981263 -0.687676 
vt -0.981259 -0.629284 
vt -0.937388 -0.629288 
vt -0.981253 -0.570892 
vt -0.937382 -0.570898 
vt -0.937366 -0.278938 
vt -0.98124 -0.220548 
vt -0.981237 -0.27894 
vt 0.430284 -0.705636 
vt 0.379106 -0.828966 
vt 0.393592 -0.864666 
vt 0.453968 -0.552524 
vt 0.446552 -0.39294 
vt 0.249689 -0.510014 
vt 0.308226 -0.90374 
vt 0.228434 -0.91857 
vt 0.226055 -0.964302 
vt 0.409165 -0.251178 
vt 0.3475 -0.148824 
vt 0.270944 -0.101456 
vt 0.358448 -0.108394 
vt 0.191152 -0.116288 
vt 0.120272 -0.19106 
vt 0.1846 -0.0722179 
vt 0.069094 -0.314392 
vt 0.04541 -0.467504 
vt 0.052826 -0.627088 
vt 0.090213 -0.768848 
vt 0.151878 -0.871204 
vt 0.105786 -0.155358 
vt 0.022545 -0.462746 
vt 0.453968 -0.552524 
vt 0.446552 -0.39294 
vt 0.468587 -0.379836 
vt 0.379106 -0.828966 
vt 0.430284 -0.705636 
vt 0.450498 -0.727532 
vt 0.249689 -0.510014 
vt 0.409165 -0.251178 
vt 0.3475 -0.148824 
vt 0.358448 -0.108394 
vt 0.273323 -0.055724 
vt 0.270944 -0.101456 
vt 0.1846 -0.0722179 
vt 0.393592 -0.864666 
vt 0.308226 -0.90374 
vt 0.314778 -0.94781 
vt 0.228434 -0.91857 
vt 0.226055 -0.964302 
vt 0.151878 -0.871204 
vt 0.090213 -0.768848 
vt 0.052826 -0.627088 
vt 0.04541 -0.467504 
vt 0.069094 -0.314392 
vt 0.120272 -0.19106 
vt 0.191152 -0.116288 
vt 0.048879 -0.292494 
vt 0.105786 -0.155358 
vt 0.557104 -0.276984 
vt 0.646605 -0.144046 
vt 0.571705 -0.293844 
vt 0.611276 -0.339536 
vt 0.589982 -0.498472 
vt 0.54429 -0.498472 
vt 0.638175 -0.114844 
vt 0.748919 -0.089216 
vt 0.669451 -0.223186 
vt 0.886563 -0.339536 
vt 0.907856 -0.498472 
vt 0.886563 -0.65741 
vt 0.611276 -0.65741 
vt 0.571705 -0.703104 
vt 0.748919 -0.055496 
vt 0.851234 -0.144046 
vt 0.748919 -0.1806 
vt 0.828388 -0.223186 
vt 0.926134 -0.293844 
vt 0.953549 -0.498472 
vt 0.926134 -0.703102 
vt 0.859664 -0.114844 
vt 0.940734 -0.276984 
vt 0.940734 -0.719962 
vt 0.851234 -0.8529 
vt 0.828388 -0.773758 
vt 0.669451 -0.773758 
vt 0.859664 -0.882102 
vt 0.748919 -0.90773 
vt 0.748919 -0.816346 
vt 0.646605 -0.8529 
vt 0.638175 -0.882102 
vt 0.748919 -0.94145 
vt 0.516251 -0.961477 
vt 0.516251 -0.961477 
vt 0.516251 -0.961477 
vt 0.516251 -0.961477 
vt 0.516251 -0.961477 
vt 0.516251 -0.961477 
vt 0.516251 -0.961477 
vt 0.516251 -0.961477 
vt 0.516251 -0.961477 
vt 0.516251 -0.961477 
vt 0.516251 -0.961477 
vt 0.516251 -0.961477 
vt 0.516251 -0.961477 
vt 0.516251 -0.961477 
vt 0.516251 -0.961477 
vt 0.516251 -0.961477 
vt 0.516251 -0.961477 
vt 0.516251 -0.961477 
vt 0.516251 -0.961477 
vt 0.516251 -0.961477 
vt 0.516251 -0.961477 
vt 0.516251 -0.961477 
vt 0.516251 -0.961477 
vt 0.516251 -0.961477 
vt 0.516251 -0.961477 
vt 0.516251 -0.961477 
vt 0.516251 -0.961477 
vt 0.516251 -0.961477 
vt 0.516251 -0.961477 
vt 0.516251 -0.961477 
vt 0.516251 -0.961477 
vt 0.516251 -0.961477 
vt 0.994459 -0.505024 
vt 0.962002 -0.26276 
vt 0.923841 -0.306824 
vt 0.851295 -0.16173 
vt 0.828043 -0.242278 
vt 0.883567 -0.353328 
vt 0.950395 -0.505024 
vt 0.962002 -0.747288 
vt 0.923841 -0.703224 
vt 0.873327 -0.924638 
vt 0.873327 -0.085408 
vt 0.752195 -0.108622 
vt 0.752195 -0.20163 
vt 0.752195 -0.340828 
vt 0.793243 -0.362826 
vt 0.823293 -0.422926 
vt 0.903891 -0.505024 
vt 0.752195 -0.020494 
vt 0.653094 -0.16173 
vt 0.676347 -0.242278 
vt 0.711146 -0.362826 
vt 0.752195 -0.505024 
vt 0.834292 -0.505024 
vt 0.883567 -0.65672 
vt 0.631063 -0.085408 
vt 0.580547 -0.306822 
vt 0.620822 -0.353328 
vt 0.681096 -0.422926 
vt 0.542387 -0.26276 
vt 0.553994 -0.505024 
vt 0.600498 -0.505024 
vt 0.670097 -0.505024 
vt 0.580547 -0.703224 
vt 0.620822 -0.65672 
vt 0.681096 -0.58712 
vt 0.653094 -0.848316 
vt 0.676347 -0.767768 
vt 0.711146 -0.64722 
vt 0.752195 -0.669218 
vt 0.793243 -0.64722 
vt 0.823293 -0.58712 
vt 0.631063 -0.924638 
vt 0.752195 -0.901424 
vt 0.752195 -0.808416 
vt 0.752195 -0.989552 
vt 0.851295 -0.848316 
vt 0.828043 -0.767768 
vt 0.542387 -0.747288 
vt 0.542387 -0.26276 
vt 0.50993 -0.505024 
vt -0.937385 -0.979632 
vt -0.981261 -0.921246 
vt -0.981256 -0.979636 
vt -0.981266 -0.746068 
vt -0.937395 -0.74607 
vt -0.981263 -0.687676 
vt -0.937392 -0.68768 
vt -0.981259 -0.629284 
vt -0.937388 -0.629288 
vt -0.981237 -0.33733 
vt -0.937366 -0.33733 
vt -0.981237 -0.27894 
vt -0.981244 -0.162158 
vt -0.937373 -0.162154 
vt -0.98125 -0.103766 
vt -0.937379 -0.103762 
vt -0.981256 -0.0453759 
vt -0.937385 -0.04537 
vt 0.752195 -0.989552 
vt 0.873327 -0.085408 
vt 0.752195 -0.020494 
vt 0.873327 -0.924638 
vt 0.752195 -0.020494 
vt 0.752195 -0.989552 
vt 0.940734 -0.719962 
vt 0.859664 -0.114844 
vt 0.638175 -0.114844 
vt 0.557104 -0.719962 
vt 0.52743 -0.498472 
vt 0.393592 -0.864666 
vt 0.314778 -0.94781 
vt 0.226055 -0.964302 
vt 0.140929 -0.911632 
vt 0.468587 -0.379836 
vt 0.358448 -0.108394 
vt 0.273323 -0.055724 
vt 0.105786 -0.155358 
vt 0.048879 -0.292494 
vt 0.030791 -0.640192 
vt 0.476833 -0.557282 
vt 0.468587 -0.379836 
vt 0.358448 -0.108394 
vt 0.273323 -0.055724 
vt 0.1846 -0.0722179 
vt 0.393592 -0.864666 
vt 0.314778 -0.94781 
vt 0.226055 -0.964302 
vt 0.140929 -0.911632 
vt 0.022545 -0.462746 
vt 0.048879 -0.292494 
vt 0.105786 -0.155358 
vt 0.542387 -0.747288 
vt 0.50993 -0.505024 
vt 0.542387 -0.26276 
vt -0.937385 -0.979632 
vt -0.981261 -0.921246 
vt -0.981256 -0.979636 
vt -0.93739 -0.921242 
vt -0.981265 -0.862854 
vt -0.937394 -0.862852 
vt -0.981267 -0.804462 
vt -0.937396 -0.80446 
vt -0.981266 -0.746068 
vt -0.981247 -0.512502 
vt -0.937376 -0.512506 
vt -0.981242 -0.45411 
vt -0.937371 -0.454114 
vt -0.981238 -0.39572 
vt -0.937367 -0.395722 
vt -0.981237 -0.33733 
vt -0.937366 -0.33733 
vt -0.937369 -0.220546 
vt -0.981244 -0.162158 
vt -0.937373 -0.162154 
vt -0.98125 -0.103766 
vt -0.937379 -0.103762 
vt -0.981256 -0.0453759 
vt -0.937385 -0.04537 
vt 0.970408 -0.498472 
vt 0.557104 -0.719962 
vt 0.52743 -0.498472 
vt 0.450498 -0.727532 
vt 0.476833 -0.557282 
vt 0.314778 -0.94781 
vt 0.140929 -0.911632 
vt 0.072362 -0.79782 
vt 0.468587 -0.379836 
vt 0.427016 -0.222206 
vt 0.273323 -0.055724 
vt 0.048879 -0.292494 
vt 0.030791 -0.640192 
vt 0.476833 -0.557282 
vt 0.427016 -0.222206 
vt 0.140929 -0.911632 
vt 0.072362 -0.79782 
vt 0.030791 -0.640192 
vt 0.022545 -0.462746 
vt 0.50993 -0.505024 
vt 0.542387 -0.747288 

usemtl Burger1Mtl

f 1/1/1 2/2/2 3/3/3 
f 2/2/2 4/4/4 3/3/3 
f 2/2/2 5/5/5 4/4/4 
f 6/6/6 7/7/7 8/8/8 
f 6/6/6 9/9/9 7/7/7 
f 9/9/9 10/10/10 7/7/7 
f 9/9/9 11/11/11 10/10/10 
f 11/11/11 12/12/12 10/10/10 
f 11/11/11 13/13/13 12/12/12 
f 14/14/14 15/15/15 16/16/16 
f 17/17/17 18/18/18 19/19/19 
f 17/17/17 20/20/20 18/18/18 
f 21/21/21 22/22/22 23/23/23 
f 21/21/21 23/23/23 24/24/24 
f 21/21/21 24/24/24 25/25/25 
f 26/26/26 27/27/27 28/28/28 
f 26/26/26 29/29/29 27/27/27 
f 30/30/30 26/26/26 28/28/28 
f 26/26/26 30/30/30 31/31/31 
f 29/29/29 26/26/26 31/31/31 
f 32/32/32 29/29/29 31/31/31 
f 33/33/33 32/32/32 31/31/31 
f 34/34/34 33/33/33 31/31/31 
f 30/30/30 35/35/35 31/31/31 
f 36/36/36 35/35/35 37/37/37 
f 35/35/35 36/36/36 31/31/31 
f 36/36/36 38/38/38 31/31/31 
f 38/38/38 39/39/39 31/31/31 
f 40/40/40 39/39/39 41/41/41 
f 39/39/39 40/40/40 31/31/31 
f 40/40/40 42/42/42 31/31/31 
f 42/42/42 43/43/43 31/31/31 
f 43/43/43 44/44/44 31/31/31 
f 44/44/44 45/45/45 31/31/31 
f 45/45/45 46/46/46 31/31/31 
f 46/46/46 34/34/34 31/31/31 
f 44/44/44 43/43/43 47/47/47 
f 46/46/46 45/45/45 48/48/48 
f 49/49/49 50/50/50 51/51/51 
f 52/52/52 53/53/53 54/54/54 
f 53/53/53 52/52/52 55/55/55 
f 56/56/56 53/53/53 55/55/55 
f 49/49/49 56/56/56 55/55/55 
f 50/50/50 49/49/49 55/55/55 
f 57/57/57 50/50/50 55/55/55 
f 52/52/52 58/58/58 55/55/55 
f 58/58/58 59/59/59 55/55/55 
f 59/59/59 60/60/60 55/55/55 
f 60/60/60 61/61/61 55/55/55 
f 62/62/62 61/61/61 63/63/63 
f 61/61/61 62/62/62 55/55/55 
f 62/62/62 64/64/64 55/55/55 
f 64/64/64 65/65/65 55/55/55 
f 65/65/65 66/66/66 55/55/55 
f 66/66/66 67/67/67 55/55/55 
f 67/67/67 68/68/68 55/55/55 
f 68/68/68 57/57/57 55/55/55 
f 62/62/62 63/63/63 69/69/69 
f 64/64/64 62/62/62 69/69/69 
f 70/70/70 71/71/71 72/72/72 
f 71/71/71 73/73/73 72/72/72 
f 72/72/72 73/73/73 74/74/74 
f 72/72/72 74/74/74 75/75/75 
f 76/76/76 77/77/77 71/71/71 
f 71/71/71 77/77/77 73/73/73 
f 78/78/78 73/73/73 77/77/77 
f 74/74/74 73/73/73 78/78/78 
f 74/74/74 78/78/78 79/79/79 
f 74/74/74 79/79/79 80/80/80 
f 74/74/74 80/80/80 81/81/81 
f 75/75/75 74/74/74 81/81/81 
f 75/75/75 81/81/81 82/82/82 
f 83/83/83 84/84/84 76/76/76 
f 84/84/84 85/85/85 76/76/76 
f 76/76/76 85/85/85 77/77/77 
f 86/86/86 77/77/77 85/85/85 
f 78/78/78 77/77/77 86/86/86 
f 87/87/87 78/78/78 86/86/86 
f 88/88/88 78/78/78 87/87/87 
f 88/88/88 79/79/79 78/78/78 
f 89/89/89 79/79/79 88/88/88 
f 89/89/89 80/80/80 79/79/79 
f 87/87/87 86/86/86 84/84/84 
f 84/84/84 86/86/86 85/85/85 
f 90/90/90 88/88/88 87/87/87 
f 90/90/90 91/91/91 88/88/88 
f 91/91/91 89/89/89 88/88/88 
f 92/92/92 80/80/80 89/89/89 
f 92/92/92 93/93/93 80/80/80 
f 81/81/81 80/80/80 93/93/93 
f 81/81/81 93/93/93 94/94/94 
f 82/82/82 81/81/81 94/94/94 
f 95/95/95 96/96/96 92/92/92 
f 96/96/96 93/93/93 92/92/92 
f 96/96/96 97/97/97 93/93/93 
f 94/94/94 93/93/93 97/97/97 
f 98/98/98 94/94/94 97/97/97 
f 82/82/82 94/94/94 98/98/98 
f 99/99/99 82/82/82 98/98/98 
f 100/100/100 99/99/99 98/98/98 
f 100/100/100 98/98/98 96/96/96 
f 95/95/95 100/100/100 96/96/96 
f 98/98/98 97/97/97 96/96/96 
f 101/101/101 102/102/102 103/103/103 
f 101/101/101 104/104/104 102/102/102 
f 104/104/104 105/105/105 102/102/102 
f 102/102/102 105/105/105 106/106/106 
f 102/102/102 106/106/106 103/103/103 
f 103/103/103 106/106/106 107/107/107 
f 103/103/103 107/107/107 101/101/101 
f 101/101/101 107/107/107 108/108/108 
f 101/101/101 108/108/108 109/109/109 
f 109/109/109 104/104/104 101/101/101 
f 109/109/109 110/110/110 104/104/104 
f 110/110/110 111/111/111 104/104/104 
f 104/104/104 111/111/111 105/105/105 
f 111/111/111 112/112/112 105/105/105 
f 105/105/105 112/112/112 113/113/113 
f 105/105/105 113/113/113 106/106/106 
f 107/107/107 114/114/114 108/108/108 
f 108/108/108 114/114/114 115/115/115 
f 108/108/108 115/115/115 116/116/116 
f 109/109/109 108/108/108 116/116/116 
f 109/109/109 116/116/116 117/117/117 
f 117/117/117 110/110/110 109/109/109 
f 117/117/117 118/118/118 110/110/110 
f 118/118/118 119/119/119 110/110/110 
f 110/110/110 119/119/119 111/111/111 
f 107/107/107 120/120/120 114/114/114 
f 120/120/120 121/121/121 114/114/114 
f 114/114/114 121/121/121 122/122/122 
f 114/114/114 122/122/122 115/115/115 
f 115/115/115 122/122/122 123/123/123 
f 115/115/115 123/123/123 124/124/124 
f 116/116/116 115/115/115 124/124/124 
f 116/116/116 124/124/124 125/125/125 
f 117/117/117 116/116/116 125/125/125 
f 117/117/117 125/125/125 118/118/118 
f 118/118/118 125/125/125 119/119/119 
f 106/106/106 120/120/120 107/107/107 
f 106/106/106 113/113/113 120/120/120 
f 113/113/113 126/126/126 120/120/120 
f 120/120/120 126/126/126 121/121/121 
f 127/127/127 121/121/121 126/126/126 
f 123/123/123 121/121/121 127/127/127 
f 123/123/123 122/122/122 121/121/121 
f 113/113/113 128/128/128 126/126/126 
f 129/129/129 126/126/126 128/128/128 
f 127/127/127 126/126/126 129/129/129 
f 130/130/130 127/127/127 129/129/129 
f 124/124/124 127/127/127 130/130/130 
f 124/124/124 123/123/123 127/127/127 
f 112/112/112 128/128/128 113/113/113 
f 112/112/112 131/131/131 128/128/128 
f 129/129/129 128/128/128 131/131/131 
f 132/132/132 129/129/129 131/131/131 
f 130/130/130 129/129/129 132/132/132 
f 119/119/119 130/130/130 132/132/132 
f 125/125/125 130/130/130 119/119/119 
f 125/125/125 124/124/124 130/130/130 
f 132/132/132 131/131/131 112/112/112 
f 111/111/111 132/132/132 112/112/112 
f 119/119/119 132/132/132 111/111/111 
f 133/133/133 134/134/134 135/135/135 
f 134/134/134 136/136/136 135/135/135 
f 134/134/134 137/137/137 136/136/136 
f 137/137/137 138/138/138 136/136/136 
f 137/137/137 139/139/139 138/138/138 
f 140/140/140 141/141/141 142/142/142 
f 143/143/143 144/144/144 145/145/145 
f 146/146/146 147/147/147 148/148/148 
f 143/143/143 146/146/146 148/148/148 
f 144/144/144 143/143/143 148/148/148 
f 149/149/149 144/144/144 148/148/148 
f 150/150/150 149/149/149 148/148/148 
f 149/149/149 150/150/150 151/151/151 
f 147/147/147 152/152/152 148/148/148 
f 152/152/152 153/153/153 148/148/148 
f 154/154/154 153/153/153 155/155/155 
f 153/153/153 154/154/154 148/148/148 
f 154/154/154 156/156/156 148/148/148 
f 157/157/157 156/156/156 158/158/158 
f 156/156/156 157/157/157 148/148/148 
f 157/157/157 159/159/159 148/148/148 
f 159/159/159 160/160/160 148/148/148 
f 160/160/160 161/161/161 148/148/148 
f 161/161/161 162/162/162 148/148/148 
f 162/162/162 163/163/163 148/148/148 
f 163/163/163 150/150/150 148/148/148 
f 157/157/157 158/158/158 164/164/164 
f 159/159/159 157/157/157 164/164/164 
f 161/161/161 160/160/160 165/165/165 
f 166/166/166 167/167/167 168/168/168 
f 169/169/169 170/170/170 171/171/171 
f 170/170/170 169/169/169 172/172/172 
f 166/166/166 170/170/170 172/172/172 
f 167/167/167 166/166/166 172/172/172 
f 173/173/173 167/167/167 172/172/172 
f 174/174/174 173/173/173 172/172/172 
f 173/173/173 174/174/174 175/175/175 
f 174/174/174 176/176/176 175/175/175 
f 174/174/174 177/177/177 176/176/176 
f 177/177/177 178/178/178 176/176/176 
f 169/169/169 171/171/171 179/179/179 
f 180/180/180 169/169/169 179/179/179 
f 169/169/169 180/180/180 172/172/172 
f 180/180/180 179/179/179 181/181/181 
f 182/182/182 180/180/180 181/181/181 
f 180/180/180 182/182/182 172/172/172 
f 182/182/182 181/181/181 183/183/183 
f 184/184/184 182/182/182 183/183/183 
f 182/182/182 184/184/184 172/172/172 
f 184/184/184 185/185/185 172/172/172 
f 185/185/185 186/186/186 172/172/172 
f 186/186/186 187/187/187 172/172/172 
f 187/187/187 188/188/188 172/172/172 
f 188/188/188 189/189/189 172/172/172 
f 189/189/189 190/190/190 172/172/172 
f 190/190/190 177/177/177 172/172/172 
f 177/177/177 174/174/174 172/172/172 
f 189/189/189 188/188/188 191/191/191 
f 189/189/189 191/191/191 192/192/192 
f 190/190/190 189/189/189 192/192/192 
f 190/190/190 192/192/192 178/178/178 
f 177/177/177 190/190/190 178/178/178 
f 193/193/193 194/194/194 195/195/195 
f 194/194/194 196/196/196 195/195/195 
f 195/195/195 196/196/196 197/197/197 
f 195/195/195 197/197/197 198/198/198 
f 193/193/193 199/199/199 194/194/194 
f 199/199/199 200/200/200 194/194/194 
f 200/200/200 201/201/201 194/194/194 
f 194/194/194 201/201/201 196/196/196 
f 202/202/202 196/196/196 201/201/201 
f 197/197/197 196/196/196 202/202/202 
f 197/197/197 202/202/202 203/203/203 
f 197/197/197 203/203/203 204/204/204 
f 197/197/197 204/204/204 205/205/205 
f 198/198/198 197/197/197 205/205/205 
f 198/198/198 205/205/205 206/206/206 
f 199/199/199 207/207/207 200/200/200 
f 207/207/207 208/208/208 200/200/200 
f 208/208/208 209/209/209 200/200/200 
f 200/200/200 209/209/209 201/201/201 
f 210/210/210 201/201/201 209/209/209 
f 202/202/202 201/201/201 210/210/210 
f 211/211/211 202/202/202 210/210/210 
f 212/212/212 202/202/202 211/211/211 
f 212/212/212 203/203/203 202/202/202 
f 213/213/213 203/203/203 212/212/212 
f 213/213/213 204/204/204 203/203/203 
f 207/207/207 214/214/214 208/208/208 
f 214/214/214 211/211/211 208/208/208 
f 211/211/211 210/210/210 208/208/208 
f 208/208/208 210/210/210 209/209/209 
f 214/214/214 215/215/215 211/211/211 
f 215/215/215 212/212/212 211/211/211 
f 216/216/216 217/217/217 213/213/213 
f 217/217/217 204/204/204 213/213/213 
f 217/217/217 218/218/218 204/204/204 
f 205/205/205 204/204/204 218/218/218 
f 205/205/205 218/218/218 219/219/219 
f 206/206/206 205/205/205 219/219/219 
f 216/216/216 220/220/220 217/217/217 
f 220/220/220 221/221/221 217/217/217 
f 221/221/221 218/218/218 217/217/217 
f 221/221/221 222/222/222 218/218/218 
f 219/219/219 218/218/218 222/222/222 
f 223/223/223 219/219/219 222/222/222 
f 206/206/206 219/219/219 223/223/223 
f 224/224/224 206/206/206 223/223/223 
f 225/225/225 224/224/224 223/223/223 
f 225/225/225 223/223/223 221/221/221 
f 220/220/220 225/225/225 221/221/221 
f 223/223/223 222/222/222 221/221/221 
f 226/226/226 227/227/227 228/228/228 
f 226/226/226 229/229/229 227/227/227 
f 229/229/229 230/230/230 227/227/227 
f 227/227/227 230/230/230 231/231/231 
f 227/227/227 231/231/231 228/228/228 
f 228/228/228 231/231/231 232/232/232 
f 228/228/228 232/232/232 226/226/226 
f 226/226/226 232/232/232 233/233/233 
f 226/226/226 233/233/233 234/234/234 
f 234/234/234 229/229/229 226/226/226 
f 234/234/234 235/235/235 229/229/229 
f 235/235/235 236/236/236 229/229/229 
f 229/229/229 236/236/236 230/230/230 
f 236/236/236 237/237/237 230/230/230 
f 230/230/230 237/237/237 238/238/238 
f 230/230/230 238/238/238 231/231/231 
f 232/232/232 239/239/239 233/233/233 
f 233/233/233 239/239/239 240/240/240 
f 233/233/233 240/240/240 241/241/241 
f 234/234/234 233/233/233 241/241/241 
f 234/234/234 241/241/241 242/242/242 
f 242/242/242 235/235/235 234/234/234 
f 242/242/242 243/243/243 235/235/235 
f 243/243/243 244/244/244 235/235/235 
f 235/235/235 244/244/244 236/236/236 
f 232/232/232 245/245/245 239/239/239 
f 245/245/245 246/246/246 239/239/239 
f 239/239/239 246/246/246 247/247/247 
f 239/239/239 247/247/247 240/240/240 
f 240/240/240 247/247/247 248/248/248 
f 240/240/240 248/248/248 249/249/249 
f 241/241/241 240/240/240 249/249/249 
f 241/241/241 249/249/249 250/250/250 
f 242/242/242 241/241/241 250/250/250 
f 242/242/242 250/250/250 243/243/243 
f 243/243/243 250/250/250 244/244/244 
f 231/231/231 245/245/245 232/232/232 
f 231/231/231 238/238/238 245/245/245 
f 238/238/238 251/251/251 245/245/245 
f 245/245/245 251/251/251 246/246/246 
f 252/252/252 246/246/246 251/251/251 
f 248/248/248 246/246/246 252/252/252 
f 248/248/248 247/247/247 246/246/246 
f 238/238/238 253/253/253 251/251/251 
f 254/254/254 251/251/251 253/253/253 
f 252/252/252 251/251/251 254/254/254 
f 255/255/255 252/252/252 254/254/254 
f 249/249/249 252/252/252 255/255/255 
f 249/249/249 248/248/248 252/252/252 
f 237/237/237 253/253/253 238/238/238 
f 237/237/237 256/256/256 253/253/253 
f 254/254/254 253/253/253 256/256/256 
f 257/257/257 254/254/254 256/256/256 
f 255/255/255 254/254/254 257/257/257 
f 244/244/244 255/255/255 257/257/257 
f 250/250/250 255/255/255 244/244/244 
f 250/250/250 249/249/249 255/255/255 
f 257/257/257 256/256/256 237/237/237 
f 236/236/236 257/257/257 237/237/237 
f 244/244/244 257/257/257 236/236/236 
f 258/258/258 259/259/259 260/260/260 
f 259/259/259 261/261/261 260/260/260 
f 260/260/260 261/261/261 262/262/262 
f 260/260/260 262/262/262 263/263/263 
f 264/264/264 260/260/260 263/263/263 
f 258/258/258 260/260/260 264/264/264 
f 265/265/265 258/258/258 264/264/264 
f 265/265/265 264/264/264 266/266/266 
f 267/267/267 265/265/265 266/266/266 
f 259/259/259 268/268/268 261/261/261 
f 268/268/268 269/269/269 261/261/261 
f 261/261/261 269/269/269 270/270/270 
f 261/261/261 270/270/270 262/262/262 
f 262/262/262 270/270/270 271/271/271 
f 262/262/262 271/271/271 272/272/272 
f 263/263/263 262/262/262 272/272/272 
f 263/263/263 272/272/272 273/273/273 
f 274/274/274 263/263/263 273/273/273 
f 264/264/264 263/263/263 274/274/274 
f 266/266/266 264/264/264 274/274/274 
f 268/268/268 275/275/275 269/269/269 
f 275/275/275 276/276/276 269/269/269 
f 269/269/269 276/276/276 277/277/277 
f 269/269/269 277/277/277 270/270/270 
f 270/270/270 277/277/277 278/278/278 
f 270/270/270 278/278/278 271/271/271 
f 271/271/271 278/278/278 279/279/279 
f 272/272/272 271/271/271 279/279/279 
f 273/273/273 272/272/272 279/279/279 
f 280/280/280 273/273/273 279/279/279 
f 274/274/274 273/273/273 280/280/280 
f 281/281/281 274/274/274 280/280/280 
f 266/266/266 274/274/274 281/281/281 
f 275/275/275 282/282/282 276/276/276 
f 282/282/282 283/283/283 276/276/276 
f 276/276/276 283/283/283 284/284/284 
f 276/276/276 284/284/284 277/277/277 
f 277/277/277 284/284/284 285/285/285 
f 277/277/277 285/285/285 278/278/278 
f 278/278/278 285/285/285 279/279/279 
f 282/282/282 286/286/286 283/283/283 
f 286/286/286 287/287/287 283/283/283 
f 283/283/283 287/287/287 288/288/288 
f 283/283/283 288/288/288 284/284/284 
f 284/284/284 288/288/288 289/289/289 
f 284/284/284 289/289/289 285/285/285 
f 285/285/285 289/289/289 279/279/279 
f 287/287/287 290/290/290 291/291/291 
f 287/287/287 291/291/291 288/288/288 
f 288/288/288 291/291/291 292/292/292 
f 288/288/288 292/292/292 289/289/289 
f 289/289/289 292/292/292 279/279/279 
f 290/290/290 293/293/293 294/294/294 
f 290/290/290 294/294/294 291/291/291 
f 291/291/291 294/294/294 295/295/295 
f 291/291/291 295/295/295 292/292/292 
f 292/292/292 295/295/295 279/279/279 
f 295/295/295 296/296/296 279/279/279 
f 296/296/296 297/297/297 279/279/279 
f 297/297/297 298/298/298 279/279/279 
f 298/298/298 280/280/280 279/279/279 
f 299/299/299 300/300/300 293/293/293 
f 293/293/293 300/300/300 301/301/301 
f 293/293/293 301/301/301 294/294/294 
f 294/294/294 301/301/301 296/296/296 
f 294/294/294 296/296/296 295/295/295 
f 299/299/299 302/302/302 300/300/300 
f 302/302/302 303/303/303 300/300/300 
f 300/300/300 303/303/303 304/304/304 
f 300/300/300 304/304/304 301/301/301 
f 301/301/301 304/304/304 297/297/297 
f 301/301/301 297/297/297 296/296/296 
f 302/302/302 267/267/267 303/303/303 
f 267/267/267 266/266/266 303/303/303 
f 303/303/303 266/266/266 281/281/281 
f 303/303/303 281/281/281 304/304/304 
f 304/304/304 281/281/281 298/298/298 
f 304/304/304 298/298/298 297/297/297 
f 281/281/281 280/280/280 298/298/298 
f 265/265/265 267/267/267 302/302/302 
f 286/286/286 282/282/282 275/275/275 
f 275/275/275 268/268/268 259/259/259 
f 286/286/286 275/275/275 259/259/259 
f 302/302/302 286/286/286 259/259/259 
f 265/265/265 302/302/302 259/259/259 
f 258/258/258 265/265/265 259/259/259 
f 305/305/305 306/306/306 307/307/307 
f 308/308/308 309/309/309 310/310/310 
f 308/308/308 1/1/1 309/309/309 
f 1/1/1 3/3/3 309/309/309 
f 5/5/5 311/311/311 4/4/4 
f 5/5/5 312/312/312 311/311/311 
f 312/312/312 313/313/313 311/311/311 
f 312/312/312 314/314/314 313/313/313 
f 314/314/314 315/315/315 313/313/313 
f 314/314/314 316/316/316 315/315/315 
f 316/316/316 8/8/8 315/315/315 
f 316/316/316 6/6/6 8/8/8 
f 13/13/13 317/317/317 12/12/12 
f 13/13/13 318/318/318 317/317/317 
f 318/318/318 319/319/319 317/317/317 
f 318/318/318 14/14/14 319/319/319 
f 14/14/14 16/16/16 319/319/319 
f 15/15/15 320/320/320 16/16/16 
f 15/15/15 321/321/321 320/320/320 
f 321/321/321 322/322/322 320/320/320 
f 321/321/321 323/323/323 322/322/322 
f 323/323/323 324/324/324 322/322/322 
f 323/323/323 325/325/325 324/324/324 
f 326/326/326 327/327/327 328/328/328 
f 329/329/329 327/327/327 326/326/326 
f 330/330/330 20/20/20 17/17/17 
f 330/330/330 331/331/331 20/20/20 
f 90/90/90 332/332/332 91/91/91 
f 333/333/333 332/332/332 90/90/90 
f 333/333/333 95/95/95 332/332/332 
f 83/83/83 95/95/95 333/333/333 
f 83/83/83 100/100/100 95/95/95 
f 334/334/334 100/100/100 83/83/83 
f 334/334/334 99/99/99 100/100/100 
f 335/335/335 99/99/99 334/334/334 
f 335/335/335 334/334/334 70/70/70 
f 335/335/335 70/70/70 336/336/336 
f 29/29/29 337/337/337 27/27/27 
f 29/29/29 32/32/32 337/337/337 
f 32/32/32 338/338/338 337/337/337 
f 32/32/32 33/33/33 338/338/338 
f 33/33/33 339/339/339 338/338/338 
f 33/33/33 34/34/34 339/339/339 
f 34/34/34 340/340/340 339/339/339 
f 34/34/34 46/46/46 340/340/340 
f 46/46/46 48/48/48 340/340/340 
f 30/30/30 28/28/28 341/341/341 
f 35/35/35 30/30/30 341/341/341 
f 35/35/35 341/341/341 37/37/37 
f 36/36/36 37/37/37 342/342/342 
f 38/38/38 36/36/36 342/342/342 
f 38/38/38 342/342/342 343/343/343 
f 39/39/39 38/38/38 343/343/343 
f 39/39/39 343/343/343 41/41/41 
f 40/40/40 41/41/41 344/344/344 
f 42/42/42 40/40/40 344/344/344 
f 42/42/42 344/344/344 345/345/345 
f 43/43/43 42/42/42 345/345/345 
f 43/43/43 345/345/345 47/47/47 
f 44/44/44 47/47/47 346/346/346 
f 45/45/45 44/44/44 346/346/346 
f 45/45/45 346/346/346 48/48/48 
f 53/53/53 347/347/347 54/54/54 
f 53/53/53 56/56/56 347/347/347 
f 56/56/56 348/348/348 347/347/347 
f 56/56/56 49/49/49 348/348/348 
f 49/49/49 51/51/51 348/348/348 
f 50/50/50 349/349/349 51/51/51 
f 50/50/50 57/57/57 349/349/349 
f 57/57/57 350/350/350 349/349/349 
f 57/57/57 68/68/68 350/350/350 
f 68/68/68 351/351/351 350/350/350 
f 52/52/52 54/54/54 352/352/352 
f 58/58/58 52/52/52 352/352/352 
f 58/58/58 352/352/352 353/353/353 
f 59/59/59 58/58/58 353/353/353 
f 59/59/59 353/353/353 354/354/354 
f 60/60/60 59/59/59 354/354/354 
f 60/60/60 354/354/354 355/355/355 
f 61/61/61 60/60/60 355/355/355 
f 61/61/61 355/355/355 63/63/63 
f 64/64/64 69/69/69 356/356/356 
f 65/65/65 64/64/64 356/356/356 
f 65/65/65 356/356/356 357/357/357 
f 66/66/66 65/65/65 357/357/357 
f 66/66/66 357/357/357 358/358/358 
f 67/67/67 66/66/66 358/358/358 
f 67/67/67 358/358/358 351/351/351 
f 68/68/68 67/67/67 351/351/351 
f 336/336/336 70/70/70 72/72/72 
f 336/336/336 72/72/72 75/75/75 
f 335/335/335 336/336/336 75/75/75 
f 335/335/335 75/75/75 82/82/82 
f 99/99/99 335/335/335 82/82/82 
f 70/70/70 334/334/334 71/71/71 
f 334/334/334 76/76/76 71/71/71 
f 334/334/334 83/83/83 76/76/76 
f 83/83/83 333/333/333 84/84/84 
f 333/333/333 87/87/87 84/84/84 
f 333/333/333 90/90/90 87/87/87 
f 91/91/91 332/332/332 89/89/89 
f 332/332/332 92/92/92 89/89/89 
f 332/332/332 95/95/95 92/92/92 
f 359/359/359 360/360/360 361/361/361 
f 362/362/362 363/363/363 364/364/364 
f 362/362/362 365/365/365 363/363/363 
f 365/365/365 366/366/366 363/363/363 
f 365/365/365 367/367/367 366/366/366 
f 367/367/367 368/368/368 366/366/366 
f 367/367/367 369/369/369 368/368/368 
f 369/369/369 370/370/370 368/368/368 
f 369/369/369 133/133/133 370/370/370 
f 133/133/133 135/135/135 370/370/370 
f 139/139/139 371/371/371 138/138/138 
f 139/139/139 372/372/372 371/371/371 
f 372/372/372 373/373/373 371/371/371 
f 372/372/372 374/374/374 373/373/373 
f 374/374/374 375/375/375 373/373/373 
f 374/374/374 376/376/376 375/375/375 
f 376/376/376 377/377/377 375/375/375 
f 376/376/376 378/378/378 377/377/377 
f 378/378/378 142/142/142 377/377/377 
f 378/378/378 140/140/140 142/142/142 
f 140/140/140 379/379/379 141/141/141 
f 379/379/379 380/380/380 141/141/141 
f 379/379/379 381/381/381 380/380/380 
f 381/381/381 382/382/382 380/380/380 
f 381/381/381 383/383/383 382/382/382 
f 383/383/383 384/384/384 382/382/382 
f 383/383/383 385/385/385 384/384/384 
f 215/215/215 216/216/216 386/386/386 
f 214/214/214 216/216/216 215/215/215 
f 214/214/214 220/220/220 216/216/216 
f 207/207/207 220/220/220 214/214/214 
f 207/207/207 225/225/225 220/220/220 
f 199/199/199 225/225/225 207/207/207 
f 199/199/199 224/224/224 225/225/225 
f 387/387/387 224/224/224 199/199/199 
f 387/387/387 199/199/199 193/193/193 
f 387/387/387 193/193/193 388/388/388 
f 146/146/146 389/389/389 390/390/390 
f 146/146/146 143/143/143 389/389/389 
f 143/143/143 145/145/145 389/389/389 
f 144/144/144 391/391/391 145/145/145 
f 144/144/144 149/149/149 391/391/391 
f 149/149/149 151/151/151 391/391/391 
f 147/147/147 146/146/146 390/390/390 
f 150/150/150 392/392/392 151/151/151 
f 150/150/150 163/163/163 392/392/392 
f 163/163/163 393/393/393 392/392/392 
f 147/147/147 390/390/390 394/394/394 
f 152/152/152 147/147/147 394/394/394 
f 152/152/152 394/394/394 395/395/395 
f 153/153/153 152/152/152 395/395/395 
f 153/153/153 395/395/395 155/155/155 
f 154/154/154 155/155/155 396/396/396 
f 156/156/156 154/154/154 396/396/396 
f 156/156/156 396/396/396 158/158/158 
f 159/159/159 164/164/164 397/397/397 
f 160/160/160 159/159/159 397/397/397 
f 160/160/160 397/397/397 165/165/165 
f 161/161/161 165/165/165 398/398/398 
f 162/162/162 161/161/161 398/398/398 
f 162/162/162 398/398/398 393/393/393 
f 163/163/163 162/162/162 393/393/393 
f 170/170/170 399/399/399 171/171/171 
f 170/170/170 166/166/166 399/399/399 
f 166/166/166 168/168/168 399/399/399 
f 167/167/167 400/400/400 168/168/168 
f 167/167/167 173/173/173 400/400/400 
f 173/173/173 175/175/175 400/400/400 
f 184/184/184 183/183/183 401/401/401 
f 185/185/185 184/184/184 401/401/401 
f 185/185/185 401/401/401 402/402/402 
f 186/186/186 185/185/185 402/402/402 
f 186/186/186 402/402/402 403/403/403 
f 187/187/187 186/186/186 403/403/403 
f 187/187/187 403/403/403 404/404/404 
f 188/188/188 187/187/187 404/404/404 
f 188/188/188 404/404/404 191/191/191 
f 388/388/388 193/193/193 195/195/195 
f 388/388/388 195/195/195 198/198/198 
f 387/387/387 388/388/388 198/198/198 
f 387/387/387 198/198/198 206/206/206 
f 224/224/224 387/387/387 206/206/206 
f 215/215/215 386/386/386 212/212/212 
f 386/386/386 213/213/213 212/212/212 
f 386/386/386 216/216/216 213/213/213 
f 286/286/286 405/405/405 287/287/287 
f 405/405/405 290/290/290 287/287/287 
f 405/405/405 406/406/406 290/290/290 
f 406/406/406 293/293/293 290/290/290 
f 406/406/406 299/299/299 293/293/293 
f 302/302/302 299/299/299 406/406/406 
f 302/302/302 406/406/406 286/286/286 

